<?xml version="1.0" encoding="iso-8859-1"?>
<!-- Generator: Adobe Illustrator 16.0.0, SVG Export Plug-In . SVG Version: 6.00 Build 0)  -->
<!DOCTYPE svg PUBLIC "-//W3C//DTD SVG 1.1//EN" "http://www.w3.org/Graphics/SVG/1.1/DTD/svg11.dtd">
<svg version="1.1" id="Capa_1" xmlns="http://www.w3.org/2000/svg" xmlns:xlink="http://www.w3.org/1999/xlink" x="0px" y="0px"
	 width="696.662px" height="696.663px" viewBox="0 0 696.662 696.663" style="enable-background:new 0 0 696.662 696.663;"
	 xml:space="preserve">
<g>
	<path d="M56.961,191.577l17.977-6.867l3.409,1.98l-14.731,8.309l-0.337,7.479c-0.006,0-14.225,84.932,1.541,119.941
		c0,0,26.114,6.882,44.561-12.832L86.559,208.024l-2.389-8.308l31.004-17.036l-0.678,6.455L92.083,204.3l12.618,0.795l152.824,2.784
		l127.957-83.623l85.145-61.274L209.247,40.19L0,198.47l55.322,3.497L56.961,191.577z M228.317,106.424
		c15.936-4.567,31.12-0.413,33.917,9.315c2.798,9.714-7.853,21.309-23.781,25.907c-15.928,4.579-31.113,0.413-33.912-9.301
		C201.737,122.618,212.388,111.022,228.317,106.424z M89.278,303.836l-5.249,1.504c0,0-5.224-27.995-5.512-58.6L89.278,303.836z"/>
	<path d="M696.662,622.058l-125.14-78.212V243.516H403.649c7.181-10.892,10.025-21.644,7.223-31.383
		c-0.072-0.27-0.23-0.512-0.311-0.771l-20.559-71.379l-127.952,83.626l-152.823-2.787l12.239,42.514l8.537,29.65
		c2.767,9.604,10.716,17.107,22.308,22.51v228.354l-125.138,78.21v34.413h669.488V622.058z M287.831,312.978
		c28.315-8.164,53.579-19.371,73.847-31.921h169.175v226.735H183.596V323.877C212.137,327.469,249.122,324.122,287.831,312.978z
		 M166.682,554.793h390.47l56.604,40.673H110.078L166.682,554.793z"/>
</g>
<g>
</g>
<g>
</g>
<g>
</g>
<g>
</g>
<g>
</g>
<g>
</g>
<g>
</g>
<g>
</g>
<g>
</g>
<g>
</g>
<g>
</g>
<g>
</g>
<g>
</g>
<g>
</g>
<g>
</g>
</svg>
