<?xml version="1.0" encoding="utf-8"?>
<!-- Generator: Adobe Illustrator 19.2.0, SVG Export Plug-In . SVG Version: 6.00 Build 0)  -->
<svg xmlns="http://www.w3.org/2000/svg" xmlns:xlink="http://www.w3.org/1999/xlink" version="1.1" id="webvideo" x="0px" y="0px" viewBox="0 0 223.748 204" enable-background="new 0 0 223.748 204" xml:space="preserve" width="512" height="512">
<g>
	<path fill="#5CB0FF" d="M119.748,188.1777h96v-76h-96V188.1777z M147.748,132.1777c0-1.4219,0.7539-2.7344,1.9805-3.4531   c1.2305-0.7148,2.7422-0.7305,3.9805-0.0312l32,18c1.2578,0.707,2.0391,2.0391,2.0391,3.4844s-0.7812,2.7773-2.0391,3.4844l-32,18   c-0.6094,0.3438-1.2852,0.5156-1.9609,0.5156c-0.6992,0-1.3945-0.1836-2.0195-0.5469c-1.2266-0.7188-1.9805-2.0312-1.9805-3.4531   V132.1777z"/>
	<polygon fill="#5CB0FF" points="155.748,139.0176 155.748,161.3379 175.5879,150.1777  "/>
	<path fill="#1C71DA" d="M99.748,168.1777v-76h42.989c0.0146,0.7878,0.0696,1.5579,0.0696,2.3516c0,2.2109,1.7891,4,4,4   s4-1.7891,4-4c0-0.7937-0.0603-1.5632-0.0745-2.3516h25.0159h5.6484h2.3516c0-46.3164-37.6836-84-84-84h-8V8.583   c-42.5754,4.0447-76,39.9785-76,83.5947c0,46.3164,37.6836,84,84,84c2.2109,0,4-1.7891,4-4S101.959,168.1777,99.748,168.1777z    M91.748,166.8533c-19.9287-6.438-35.0586-36.3945-35.0586-72.324c0-0.7937,0.0549-1.5637,0.0696-2.3516h34.989V166.8533z    M57.1655,84.1777C59.75,52.9719,73.7729,28.0154,91.748,22.209v61.9688H57.1655z M99.748,84.1777v-63.293   c21.6829,0,39.6248,27.5808,42.5825,63.293H99.748z M175.3181,84.1777h-24.9685c-2.3884-29.9812-14.96-54.8911-31.9993-65.6013   C148.7681,26.2729,171.9641,52.2754,175.3181,84.1777z M81.1458,18.5764C64.1064,29.2866,51.5349,54.1965,49.1465,84.1777H24.178   C27.532,52.2754,50.728,26.2729,81.1458,18.5764z M23.748,92.1777h25.0159c-0.0142,0.7883-0.0745,1.5579-0.0745,2.3516   c0,28.5327,9.217,53.6572,23.1233,68.2603C43.7031,151.6274,23.748,124.2151,23.748,92.1777z"/>
	<path fill="#1C71DA" d="M219.748,104.1777h-104c-2.2109,0-4,1.7891-4,4v84c0,2.2109,1.7891,4,4,4h104c2.2109,0,4-1.7891,4-4v-84   C223.748,105.9668,221.959,104.1777,219.748,104.1777z M215.748,188.1777h-96v-76h96V188.1777z"/>
	<path fill="#FFFFFF" d="M149.7285,171.6309c0.625,0.3633,1.3203,0.5469,2.0195,0.5469c0.6758,0,1.3516-0.1719,1.9609-0.5156l32-18   c1.2578-0.707,2.0391-2.0391,2.0391-3.4844s-0.7812-2.7773-2.0391-3.4844l-32-18c-1.2383-0.6992-2.75-0.6836-3.9805,0.0312   c-1.2266,0.7188-1.9805,2.0312-1.9805,3.4531v36C147.748,169.5996,148.502,170.9121,149.7285,171.6309z M155.748,139.0176   l19.8398,11.1602l-19.8398,11.1602V139.0176z"/>
</g>
<path fill="#FF5D5D" d="M184,28c-1.0234,0-2.0479-0.3906-2.8281-1.1719c-1.5625-1.5615-1.5625-4.0947,0-5.6562l14.1426-14.1416  c1.5625-1.5625,4.0957-1.5625,5.6562,0c1.5625,1.5615,1.5625,4.0947,0,5.6562l-14.1426,14.1416C186.0469,27.6094,185.0234,28,184,28  z"/>
<path fill="#FF5D5D" d="M198.1426,28c-1.0234,0-2.0469-0.3906-2.8281-1.1719l-14.1426-14.1416  c-1.5625-1.5615-1.5625-4.0947,0-5.6562c1.5605-1.5625,4.0938-1.5625,5.6562,0l14.1426,14.1416  c1.5625,1.5615,1.5625,4.0947,0,5.6562C200.1904,27.6094,199.166,28,198.1426,28z"/>
<path fill="#00D40B" d="M26,204c-7.7197,0-14-6.2803-14-14s6.2803-14,14-14s14,6.2803,14,14S33.7197,204,26,204z M26,184  c-3.3086,0-6,2.6914-6,6s2.6914,6,6,6s6-2.6914,6-6S29.3086,184,26,184z"/>
<path fill="#FFC504" d="M15.3145,30.6279c-1.0605,0-2.0781-0.4219-2.8281-1.1719L1.1719,18.1416C0.4219,17.3916,0,16.374,0,15.3135  s0.4219-2.0781,1.1719-2.8281L12.4863,1.1719c1.5625-1.5625,4.0938-1.5625,5.6562,0l11.3135,11.3135  c1.5625,1.5615,1.5625,4.0947,0,5.6562L18.1426,29.4561C17.3926,30.2061,16.375,30.6279,15.3145,30.6279z M9.6572,15.3135  l5.6572,5.6572l5.6572-5.6572l-5.6572-5.6572L9.6572,15.3135z"/>
</svg>
