<?xml version="1.0" encoding="iso-8859-1"?>
<!-- Generator: Adobe Illustrator 18.1.1, SVG Export Plug-In . SVG Version: 6.00 Build 0)  -->
<svg version="1.1" id="Capa_1" xmlns="http://www.w3.org/2000/svg" xmlns:xlink="http://www.w3.org/1999/xlink" x="0px" y="0px"
	 viewBox="0 0 318.331 318.331" style="enable-background:new 0 0 318.331 318.331;" xml:space="preserve">
<path d="M310.331,305.092H8c-4.418,0-8-3.582-8-8V109.059c0-4.418,3.582-8,8-8s8,3.582,8,8v180.033h286.331V109.059
	c0-4.418,3.582-8,8-8s8,3.582,8,8v188.033C318.331,301.51,314.749,305.092,310.331,305.092z M261.634,269.336h-18.242
	c-4.418,0-8-3.582-8-8s3.582-8,8-8h18.242c4.418,0,8,3.582,8,8S266.052,269.336,261.634,269.336z M143.252,269.336h-36.485
	c-4.418,0-8-3.582-8-8s3.582-8,8-8h36.485c4.418,0,8,3.582,8,8S147.67,269.336,143.252,269.336z M74.941,269.336H38.455
	c-4.418,0-8-3.582-8-8s3.582-8,8-8h36.486c4.418,0,8,3.582,8,8S79.359,269.336,74.941,269.336z M279.877,239.262h-36.485
	c-4.418,0-8-3.582-8-8s3.582-8,8-8h36.485c4.418,0,8,3.582,8,8S284.295,239.262,279.877,239.262z M211.565,239.262H175.08
	c-4.418,0-8-3.582-8-8s3.582-8,8-8h36.485c4.418,0,8,3.582,8,8S215.983,239.262,211.565,239.262z M143.252,208.234h-36.485
	c-4.418,0-8-3.582-8-8s3.582-8,8-8h36.485c4.418,0,8,3.582,8,8S147.67,208.234,143.252,208.234z M74.941,208.234H38.455
	c-4.418,0-8-3.582-8-8v-30.073c0-4.418,3.582-8,8-8h36.486c4.418,0,8,3.582,8,8v30.073
	C82.941,204.653,79.359,208.234,74.941,208.234z M46.455,192.234h20.486v-14.073H46.455V192.234z M211.565,178.161H175.08
	c-4.418,0-8-3.582-8-8s3.582-8,8-8h36.485c4.418,0,8,3.582,8,8S215.983,178.161,211.565,178.161z M279.877,147.132h-36.485
	c-4.418,0-8-3.582-8-8v-30.073c0-4.418,3.582-8,8-8h36.485c4.418,0,8,3.582,8,8v30.073
	C287.877,143.551,284.295,147.132,279.877,147.132z M251.392,131.132h20.485v-14.073h-20.485V131.132z M143.252,147.132h-36.485
	c-4.418,0-8-3.582-8-8v-30.073c0-4.418,3.582-8,8-8h36.485c4.418,0,8,3.582,8,8v30.073
	C151.252,143.551,147.67,147.132,143.252,147.132z M114.767,131.132h20.485v-14.073h-20.485V131.132z M211.565,117.059H175.08
	c-4.418,0-8-3.582-8-8s3.582-8,8-8h36.485c4.418,0,8,3.582,8,8S215.983,117.059,211.565,117.059z M74.941,117.059H38.455
	c-4.418,0-8-3.582-8-8s3.582-8,8-8h36.486c4.418,0,8,3.582,8,8S79.359,117.059,74.941,117.059z M310.331,82.385H8
	c-4.418,0-8-3.582-8-8V33.33c0-4.418,3.582-8,8-8h18.171c4.418,0,8,3.582,8,8s-3.582,8-8,8H16v25.056h286.331V41.33h-10.226
	c-4.418,0-8-3.582-8-8s3.582-8,8-8h18.226c4.418,0,8,3.582,8,8v41.056C318.331,78.804,314.749,82.385,310.331,82.385z
	 M266.919,53.42c-4.418,0-8-3.582-8-8V21.239c0-4.418,3.582-8,8-8s8,3.582,8,8V45.42C274.919,49.839,271.337,53.42,266.919,53.42z
	 M51.413,53.42c-4.418,0-8-3.582-8-8V21.239c0-4.418,3.582-8,8-8s8,3.582,8,8V45.42C59.413,49.839,55.831,53.42,51.413,53.42z
	 M242.53,41.33H77.055c-4.418,0-8-3.582-8-8s3.582-8,8-8H242.53c4.418,0,8,3.582,8,8S246.948,41.33,242.53,41.33z"/>
<g>
</g>
<g>
</g>
<g>
</g>
<g>
</g>
<g>
</g>
<g>
</g>
<g>
</g>
<g>
</g>
<g>
</g>
<g>
</g>
<g>
</g>
<g>
</g>
<g>
</g>
<g>
</g>
<g>
</g>
</svg>
