<?xml version="1.0" encoding="iso-8859-1"?>
<!-- Generator: Adobe Illustrator 19.0.0, SVG Export Plug-In . SVG Version: 6.00 Build 0)  -->
<svg version="1.1" id="Layer_1" xmlns="http://www.w3.org/2000/svg" xmlns:xlink="http://www.w3.org/1999/xlink" x="0px" y="0px"
	 viewBox="0 0 512 512" style="enable-background:new 0 0 512 512;" xml:space="preserve">
<g>
	<g>
		<path d="M478.33,0H33.67C15.105,0,0,15.105,0,33.67v205.228c0,18.566,15.105,33.67,33.67,33.67h128.803v191.273
			c-5.094,2.829-8.552,8.26-8.552,14.489v17.102c0,9.136,7.433,16.568,16.569,16.568h136.818c9.136,0,16.568-7.432,16.568-16.568
			V478.33c0-6.228-3.458-11.659-8.551-14.489V358.614c0-13.851-11.268-25.119-25.119-25.119c-4.657,0-9.021,1.273-12.765,3.492
			c-4.418-7.217-12.376-12.043-21.44-12.043c-4.657,0-9.021,1.273-12.765,3.492c-4.418-7.217-12.376-12.043-21.44-12.043
			c-3.202,0-6.267,0.602-9.086,1.7v-45.524H478.33c18.566,0,33.67-15.105,33.67-33.67V33.67C512,15.105,496.895,0,478.33,0z
			 M307.842,478.33v17.102c0,0.294-0.239,0.534-0.534,0.534H170.49c-0.295,0-0.536-0.241-0.536-0.534V478.33
			c0-0.294,0.24-0.534,0.536-0.534h136.818C307.603,477.795,307.842,478.036,307.842,478.33z M221.797,332.426
			c5.01,0,9.086,4.076,9.086,9.086v8.551c0,4.428,3.589,8.017,8.017,8.017c4.427,0,8.017-3.588,8.017-8.017
			c0-5.01,4.076-9.086,9.086-9.086s9.086,4.076,9.086,9.086v8.551c0,4.428,3.589,8.017,8.017,8.017s8.017-3.588,8.017-8.017
			c0-5.01,4.076-9.086,9.086-9.086c5.01,0,9.086,4.076,9.086,9.086v103.148H178.506V238.898c0-5.01,4.076-9.086,9.086-9.086
			c5.01,0,9.086,4.076,9.086,9.086v102.614c0,4.428,3.589,8.017,8.017,8.017c4.427,0,8.017-3.588,8.017-8.017
			C212.711,336.502,216.787,332.426,221.797,332.426z M495.967,238.898c0,9.726-7.912,17.637-17.637,17.637H212.711v-17.637
			c0-13.851-11.268-25.119-25.119-25.119c-13.851,0-25.119,11.268-25.119,25.119v17.637H33.67c-9.725,0-17.637-7.911-17.637-17.637
			V33.67c0-9.726,7.912-17.637,17.637-17.637h444.66c9.725,0,17.637,7.911,17.637,17.637V238.898z"/>
	</g>
</g>
<g>
	<g>
		<path d="M153.628,126.84c9.925-7.732,16.326-19.785,16.326-33.312c0-23.281-18.941-42.221-42.221-42.221H67.875
			c-4.427,0-8.017,3.588-8.017,8.017v68.409v85.511c0,4.428,3.589,8.017,8.017,8.017h59.858c27.995,0,50.772-22.777,50.772-50.772
			C178.505,151.946,168.509,135.702,153.628,126.84z M75.891,67.34h51.841c14.44,0,26.188,11.747,26.188,26.188
			c0,14.441-11.748,26.188-26.188,26.188H75.891V67.34z M127.733,205.228H75.891v-69.478h51.841
			c19.155,0,34.739,15.583,34.739,34.739S146.887,205.228,127.733,205.228z"/>
	</g>
</g>
<g>
	<g>
		<path d="M307.307,51.307c-4.427,0-8.017,3.588-8.017,8.017v102.614c0,23.871-19.42,43.29-43.29,43.29s-43.29-19.42-43.29-43.29
			V59.324c0-4.428-3.589-8.017-8.017-8.017s-8.017,3.588-8.017,8.017v102.614c0,32.711,26.612,59.324,59.324,59.324
			s59.324-26.612,59.324-59.324V59.324C315.324,54.895,311.734,51.307,307.307,51.307z"/>
	</g>
</g>
<g>
	<g>
		<path d="M466.149,52.996c-3.495-2.718-8.532-2.09-11.249,1.406l-53.53,68.825l-53.53-68.825
			c-2.718-3.496-7.754-4.125-11.249-1.406c-3.495,2.718-4.125,7.755-1.406,11.249l58.168,74.789v74.21
			c0,4.428,3.589,8.017,8.017,8.017c4.427,0,8.017-3.588,8.017-8.017v-74.21l58.169-74.788
			C470.274,60.751,469.644,55.714,466.149,52.996z"/>
	</g>
</g>
<g>
</g>
<g>
</g>
<g>
</g>
<g>
</g>
<g>
</g>
<g>
</g>
<g>
</g>
<g>
</g>
<g>
</g>
<g>
</g>
<g>
</g>
<g>
</g>
<g>
</g>
<g>
</g>
<g>
</g>
</svg>
