<?xml version="1.0" encoding="iso-8859-1"?>
<!-- Generator: Adobe Illustrator 19.0.0, SVG Export Plug-In . SVG Version: 6.00 Build 0)  -->
<svg version="1.1" id="Layer_1" xmlns="http://www.w3.org/2000/svg" xmlns:xlink="http://www.w3.org/1999/xlink" x="0px" y="0px"
	 viewBox="0 0 512 512" style="enable-background:new 0 0 512 512;" xml:space="preserve">
<path style="fill:#ECE5DD;" d="M102.4,245.221V49.562c0-24.356,19.816-44.172,44.172-44.172h218.856
	c24.356,0,44.172,19.816,44.172,44.172v195.659H102.4z"/>
<path style="fill:#D9CBBD;" d="M365.428,5.389h-32.337c24.356,0,44.172,19.816,44.172,44.172v195.659H409.6V49.562
	C409.6,25.205,389.784,5.389,365.428,5.389z"/>
<path style="fill:#ECE5DD;" d="M400.901,102.4h-55.975H167.074h-55.975c-16.684,0-30.257,13.573-30.257,30.257v260.161
	c0,16.684,13.573,30.257,30.257,30.257h55.975h177.853h55.975c16.684,0,30.257-13.573,30.257-30.257V132.656
	C431.158,115.973,417.585,102.4,400.901,102.4z"/>
<path style="fill:#D9CBBD;" d="M400.901,102.4h-31.297c16.684,0,30.257,13.573,30.257,30.257v260.161
	c0,16.684-13.573,30.257-30.257,30.257h31.297c16.684,0,30.257-13.573,30.257-30.257V132.656
	C431.158,115.973,417.585,102.4,400.901,102.4z"/>
<path style="fill:#FFB656;" d="M36.426,506.611c-17.114,0-31.037-13.923-31.037-31.037V305.9c0-17.114,13.923-31.037,31.037-31.037
	h68.097c14.267,0,26.65,9.667,30.111,23.509l10.824,43.296c2.86,11.438,13.091,19.427,24.881,19.427H341.66
	c11.79,0,22.024-7.989,24.883-19.428l10.823-43.294c3.461-13.842,15.842-23.51,30.11-23.51h68.096
	c17.115,0,31.038,13.923,31.038,31.037v169.672c0,17.115-13.923,31.038-31.038,31.038H36.426z"/>
<path style="fill:#FFA733;" d="M475.573,274.863h-32.876c17.115,0,31.038,13.923,31.038,31.037v169.672
	c0,17.114-13.923,31.037-31.038,31.037h32.876c17.115,0.001,31.038-13.922,31.038-31.036V305.9
	C506.611,288.786,492.687,274.863,475.573,274.863z"/>
<path style="fill:#C0AB91;" d="M167.593,179.898c0,12.367-10.06,22.427-22.427,22.427l-64.324,0.152L167.074,102.4L167.593,179.898z
	"/>
<path style="fill:#ECE5DD;" d="M191.326,452.716c-13.373,0-24.253-10.879-24.253-24.253s10.879-24.253,24.253-24.253h129.347
	c13.372,0,24.253,10.879,24.253,24.253s-10.88,24.253-24.253,24.253H191.326z"/>
<g>
	<path style="fill:#BABABA;" d="M277.558,53.895H169.768c-4.465,0-8.084,3.62-8.084,8.084s3.62,8.084,8.084,8.084h107.789
		c4.466,0,8.084-3.62,8.084-8.084S282.024,53.895,277.558,53.895z"/>
	<path style="fill:#BABABA;" d="M353.01,53.895h-32.337c-4.466,0-8.084,3.62-8.084,8.084s3.618,8.084,8.084,8.084h32.337
		c4.466,0,8.084-3.62,8.084-8.084S357.476,53.895,353.01,53.895z"/>
	<path style="fill:#BABABA;" d="M169.768,226.358h-43.116c-4.465,0-8.084,3.62-8.084,8.084c0,4.465,3.62,8.084,8.084,8.084h43.116
		c4.465,0,8.084-3.62,8.084-8.084C177.853,229.977,174.233,226.358,169.768,226.358z"/>
	<path style="fill:#BABABA;" d="M202.105,242.526h161.684c4.466,0,8.084-3.62,8.084-8.084c0-4.465-3.618-8.084-8.084-8.084H202.105
		c-4.465,0-8.084,3.62-8.084,8.084C194.021,238.907,197.641,242.526,202.105,242.526z"/>
	<path style="fill:#BABABA;" d="M328.758,299.116c0-4.465-3.618-8.084-8.084-8.084H191.326c-4.465,0-8.084,3.62-8.084,8.084
		c0,4.465,3.62,8.084,8.084,8.084h129.347C325.139,307.2,328.758,303.58,328.758,299.116z"/>
	<path style="fill:#BABABA;" d="M205.342,177.853H256c4.548,0,8.218-3.754,8.081-8.333c-0.133-4.424-3.993-7.835-8.419-7.835
		h-50.318c-4.465,0-8.084,3.62-8.084,8.084C197.259,174.233,200.878,177.853,205.342,177.853z"/>
	<path style="fill:#BABABA;" d="M310.973,177.853h32.337c4.466,0,8.084-3.62,8.084-8.084c0-4.465-3.618-8.084-8.084-8.084h-32.337
		c-4.466,0-8.084,3.62-8.084,8.084C302.888,174.233,306.507,177.853,310.973,177.853z"/>
</g>
<path d="M475.574,269.474h-39.026V132.656c0-14.653-8.89-27.265-21.558-32.738V49.562C414.989,22.234,392.756,0,365.428,0H146.572
	c-27.328,0-49.562,22.234-49.562,49.562v50.356c-12.667,5.472-21.558,18.084-21.558,32.738v136.818H36.427
	C16.341,269.474,0,285.815,0,305.9v169.672C0,495.659,16.341,512,36.427,512h439.146C495.659,512,512,495.659,512,475.574V305.9
	C512,285.815,495.659,269.474,475.574,269.474z M113.179,49.562c0-18.413,14.98-33.393,33.393-33.393h218.856
	c18.413,0,33.393,14.981,33.393,33.393v47.449H113.179V49.562z M91.621,132.656c0-10.74,8.736-19.478,19.476-19.478h40.668
	l-60.144,67.663V132.656z M161.684,126.358v56.016c0,6.422-5.226,11.648-11.648,11.648h-48.498L161.684,126.358z M495.832,475.574
	c0,11.189-9.07,20.258-20.258,20.258H36.426c-11.187,0-20.258-9.07-20.258-20.258V305.9c0-11.187,9.07-20.258,20.258-20.258h68.097
	c9.296,0,17.399,6.327,19.653,15.345L135,344.282c4.063,16.246,18.595,27.592,35.34,27.592h30.162c4.465,0,8.084-3.62,8.084-8.084
	s-3.62-8.084-8.084-8.084H170.34c-9.296,0-17.399-6.327-19.653-15.345l-10.823-43.295l0,0c-4.063-16.246-18.595-27.592-35.34-27.592
	H91.621v-59.284h58.415c15.362,0,27.816-12.454,27.816-27.816v-69.194h223.049c10.757,0,19.478,8.72,19.478,19.478v136.817h-12.902
	c-16.745,0-31.277,11.346-35.34,27.592l-10.823,43.296c-2.259,9.034-10.341,15.344-19.653,15.344H236.147
	c-4.465,0-8.084,3.62-8.084,8.084s3.62,8.084,8.084,8.084H341.66c16.745,0,31.277-11.346,35.34-27.592l10.823-43.296
	c2.259-9.035,10.341-15.345,19.654-15.345h68.096c11.189,0,20.258,9.07,20.258,20.258V475.574z"/>
<path d="M320.674,398.821H191.326c-16.345,0-29.642,13.297-29.642,29.642c0,16.345,13.297,29.642,29.642,29.642h129.347
	c16.344,0,29.642-13.297,29.642-29.642C350.316,412.118,337.018,398.821,320.674,398.821z M320.674,441.937H191.326
	c-7.43,0-13.474-6.044-13.474-13.474s6.044-13.474,13.474-13.474h129.347c7.43,0,13.474,6.044,13.474,13.474
	S328.104,441.937,320.674,441.937z"/>
<g>
</g>
<g>
</g>
<g>
</g>
<g>
</g>
<g>
</g>
<g>
</g>
<g>
</g>
<g>
</g>
<g>
</g>
<g>
</g>
<g>
</g>
<g>
</g>
<g>
</g>
<g>
</g>
<g>
</g>
</svg>
