<?xml version="1.0" encoding="iso-8859-1"?>
<!-- Generator: Adobe Illustrator 19.0.0, SVG Export Plug-In . SVG Version: 6.00 Build 0)  -->
<svg version="1.1" id="Layer_1" xmlns="http://www.w3.org/2000/svg" xmlns:xlink="http://www.w3.org/1999/xlink" x="0px" y="0px"
	 viewBox="0 0 512 512" style="enable-background:new 0 0 512 512;" xml:space="preserve">
<g>
	<g>
		<path d="M381.736,271.812c-2.609-3.929-7.91-4.996-11.839-2.387c-3.136,2.084-11.607,4.327-22.797,4.327
			c-11.191,0-19.662-2.243-22.797-4.326c-3.929-2.61-9.23-1.542-11.841,2.386c-2.61,3.929-1.542,9.23,2.386,11.84
			c6.767,4.497,18.823,7.182,32.251,7.182c13.427,0,25.483-2.684,32.25-7.181C383.278,281.041,384.346,275.74,381.736,271.812z"/>
	</g>
</g>
<g>
	<g>
		<path d="M324.339,187.028c-5.884-4.81-16.267-7.682-27.777-7.682c-11.508,0-21.892,2.871-27.777,7.681
			c-3.652,2.985-4.193,8.365-1.208,12.017c2.986,3.653,8.365,4.194,12.019,1.208c1.881-1.537,7.951-3.824,16.965-3.824
			c9.014,0,15.084,2.288,16.965,3.825c1.586,1.297,3.499,1.928,5.401,1.928c2.475,0,4.929-1.069,6.617-3.135
			C328.53,195.396,327.991,190.014,324.339,187.028z"/>
	</g>
</g>
<g>
	<g>
		<circle cx="296.557" cy="218.004" r="12.398"/>
	</g>
</g>
<g>
	<g>
		<path d="M425.417,187.027c-5.884-4.809-16.268-7.68-27.776-7.68c-11.51,0-21.894,2.872-27.778,7.682
			c-3.652,2.986-4.192,8.368-1.206,12.019c1.688,2.065,4.142,3.135,6.617,3.135c1.901,0,3.815-0.632,5.401-1.928
			c1.881-1.538,7.951-3.825,16.965-3.825s15.085,2.288,16.966,3.825c3.652,2.986,9.033,2.444,12.019-1.209
			C429.611,195.394,429.069,190.012,425.417,187.027z"/>
	</g>
</g>
<g>
	<g>
		<circle cx="397.646" cy="218.004" r="12.398"/>
	</g>
</g>
<g>
	<g>
		<path d="M511.374,482.068c-6.968-17.192-16.594-33.155-28.613-47.447c-3.037-3.61-8.423-4.077-12.033-1.04
			c-3.61,3.036-4.076,8.423-1.04,12.033c8.072,9.598,14.946,20.025,20.53,31.12H203.987c0.124-0.246,0.254-0.487,0.378-0.732
			c4.562-8.976,10.005-17.511,16.18-25.463c6.125-7.889,12.987-15.207,20.463-21.83c6.1-5.405,12.626-10.144,19.364-14.708
			c6.258-4.237,13.731-8.992,20.94-11.277c7.451,12.336,14.007,23.088,26.433,31.324c11.52,7.633,25.527,11.873,39.357,11.873
			c27.907,0,54.728-17.687,65.722-43.375c11.957,5.391,23.227,12.257,33.598,20.47c3.698,2.929,9.069,2.305,11.998-1.392
			c2.929-3.698,2.306-9.07-1.392-11.998c-13.838-10.962-29.135-19.755-45.543-26.165c0,0-0.682-0.26-0.696-0.263
			c-6.74-2.596-13.694-4.791-20.746-6.549v-27.333c39.319-14.871,68.989-49.538,76.78-91.78c19.48-3.187,34.395-20.13,34.395-40.498
			c0-11.884-5.102-22.617-13.226-30.126V159.07c0-77.688-63.203-140.891-140.891-140.891c-34.685,0-66.477,12.606-91.051,33.468
			c-25.449-21.634-57.518-33.468-91.151-33.468c-25.276,0-50.081,6.782-71.732,19.615c-4.057,2.405-5.398,7.645-2.993,11.702
			s7.645,5.399,11.702,2.993c19.017-11.27,40.81-17.228,63.024-17.228c28.938,0,56.563,9.964,78.696,28.224
			c-14.897,16.116-25.778,35.405-31.85,56.454c-0.074,0.254-0.15,0.507-0.223,0.762c-0.07,0.247-0.148,0.492-0.216,0.739
			c-0.025,0.014-0.047,0.029-0.073,0.042c-0.331,0.18-0.683,0.352-1.06,0.509c-0.065,0.027-0.138,0.049-0.204,0.075
			c-0.315,0.125-0.648,0.239-0.993,0.34c-0.133,0.04-0.272,0.073-0.41,0.108c-0.313,0.08-0.639,0.145-0.975,0.2
			c-0.143,0.024-0.285,0.049-0.433,0.068c-0.483,0.06-0.98,0.102-1.508,0.102c-6.525,0-11.835-5.309-11.835-11.835
			c0-4.718-3.824-8.541-8.541-8.541c-4.717,0-8.541,3.823-8.541,8.541c0,6.525-5.309,11.835-11.835,11.835
			c-6.526,0-11.835-5.309-11.835-11.835c0-4.718-3.824-8.541-8.541-8.541c-4.717,0-8.541,3.823-8.541,8.541
			c0,6.525-5.309,11.835-11.835,11.835c-6.526,0-11.835-5.309-11.835-11.835c0-4.718-3.824-8.541-8.541-8.541
			s-8.541,3.823-8.541,8.541c0,6.525-5.309,11.835-11.835,11.835c-3.679,0-7.093-1.687-9.363-4.629c-1.71-2.218-4.4-3.454-7.2-3.312
			c-2.798,0.145-5.348,1.651-6.822,4.034c-8.207,13.259-13.68,28.293-15.765,43.751c-0.634,4.7-1.02,9.436-1.08,14.179
			c-0.696,0.149-1.387,0.317-2.074,0.502V159.07c0-32.715,12.647-63.567,35.612-86.878c3.31-3.361,3.271-8.767-0.09-12.078
			c-3.361-3.313-8.768-3.268-12.078,0.09C38.402,86.731,24.01,121.842,24.01,159.07v27.843
			c-8.125,7.509-13.227,18.242-13.227,30.126c0,20.368,14.916,37.309,34.395,40.498c7.791,42.243,37.461,76.91,76.78,91.78v27.333
			c-7.072,1.763-14.042,3.963-20.822,6.579c-11.089,4.279-21.813,9.726-31.873,16.186c-2.198,1.412-3.629,3.752-3.884,6.352
			s0.693,5.175,2.576,6.986l0.077,0.073c3.24,3.134,8.348,3.201,11.666,0.195c6.25-3.936,12.77-7.438,19.481-10.466
			c-2.336,1.055,16.15,23.323,18.044,25.016c13.047,11.663,30.153,18.35,47.674,18.35c13.711,0,27.592-4.163,39.053-11.672
			c11.332-7.425,20.507-18.068,26.09-30.418c0.192-0.427,0.393-0.851,0.577-1.282c3.24,1.462,6.438,3.037,9.583,4.718
			c-21.723,16.409-39.187,37.381-51.378,61.624c-1.302,2.587-2.56,5.197-3.733,7.845H21.773
			c7.912-15.764,18.343-30.032,31.117-42.539c3.371-3.299,3.428-8.707,0.128-12.077c-3.3-3.37-8.708-3.429-12.078-0.126
			C23.376,439.192,9.812,459.405,0.626,482.07c-1.067,2.634-0.756,5.623,0.831,7.98c1.587,2.357,4.243,3.769,7.083,3.769h182.203
			h312.716c2.841,0,5.496-1.412,7.083-3.769C512.129,487.693,512.441,484.702,511.374,482.068z M27.863,217.038
			c0-9.603,6.185-18.712,15.173-22.282c0.039-0.016,0.079-0.029,0.118-0.044v40.689c0,1.229,0.024,2.451,0.06,3.671
			c0.002,0.112,0.001,0.221,0.005,0.331C34.246,235.938,27.863,227.22,27.863,217.038z M396.869,396.373
			c-0.083,0.188-0.164,0.377-0.248,0.564c-0.123,0.27-0.247,0.54-0.375,0.809c-8.885,18.72-28.425,31.095-49.146,31.095
			c-16.338,0-32.26-7.731-42.482-20.457c-0.73-0.909-7.73-11.864-7.286-12.009c5.604-1.829,11.33-3.354,17.103-4.552
			c3.963-0.823,6.805-4.315,6.805-8.363v-29.073c8.482,1.843,17.182,2.759,25.859,2.759c8.668-0.001,17.387-0.92,25.86-2.76v29.073
			c0,4.048,2.842,7.54,6.805,8.363C385.538,393.02,391.264,394.545,396.869,396.373z M451.762,184.538v50.864
			c0,4.101-0.245,8.212-0.724,12.285c-4.957,42.212-35.13,76.82-75.006,88.307c-0.107,0.031-0.213,0.065-0.32,0.095
			c-9.279,2.656-18.963,3.975-28.613,3.975c-9.643,0-19.333-1.336-28.61-3.974c-0.131-0.038-0.26-0.079-0.391-0.116
			c-30.407-8.781-55.168-31.008-67.392-59.798c-0.033-0.077-0.064-0.154-0.097-0.231c-3.653-8.737-6.163-17.953-7.345-27.352
			c-0.545-4.322-0.829-8.724-0.829-13.19v-50.864v-6.189c0-14.547,3.284-28.81,9.561-41.767c4.119,2.204,8.762,3.387,13.598,3.387
			c7.942,0,15.144-3.217,20.376-8.418c5.232,5.2,12.434,8.418,20.376,8.418c0.496,0,0.99-0.013,1.48-0.038
			c7.354-0.372,13.991-3.505,18.896-8.38c4.905,4.875,11.541,8.008,18.896,8.38c0.491,0.024,0.984,0.038,1.48,0.038
			c7.942,0,15.144-3.217,20.376-8.418c5.232,5.2,12.434,8.418,20.376,8.418s15.146-3.217,20.377-8.418
			c5.23,5.2,12.434,8.418,20.376,8.418c4.837,0,9.48-1.183,13.598-3.387c6.277,12.957,9.561,27.219,9.561,41.767V184.538z
			 M484.135,217.038c0.001,10.183-6.382,18.901-15.356,22.365c0.003-0.11,0.002-0.221,0.006-0.331c0.036-1.22,0.06-2.443,0.06-3.671
			v-40.689c0.041,0.016,0.083,0.031,0.123,0.047C477.997,198.349,484.135,207.313,484.135,217.038z M229.45,120.485
			c4.532-13.829,11.573-26.825,20.615-38.224c23.303-29.379,59.534-47,97.037-47c68.268,0,123.809,55.54,123.809,123.809v18.342
			c-0.687-0.186-1.378-0.354-2.074-0.502c-0.006-0.436-0.029-0.87-0.039-1.305c-0.36-14.927-3.611-29.851-9.818-43.449
			c-2.067-4.527-4.367-8.944-6.987-13.177c-1.475-2.382-4.024-3.889-6.822-4.034c-2.802-0.148-5.49,1.094-7.2,3.312
			c-2.271,2.943-5.684,4.629-9.364,4.629c-6.525,0-11.835-5.309-11.835-11.835c0-4.718-3.824-8.541-8.541-8.541
			c-4.717,0-8.541,3.823-8.541,8.541c0,6.525-5.31,11.835-11.836,11.835c-6.525,0-11.835-5.309-11.835-11.835
			c0-4.718-3.824-8.541-8.541-8.541c-4.717,0-8.541,3.823-8.541,8.541c0,6.525-5.309,11.835-11.835,11.835
			c-6.525,0-11.835-5.309-11.835-11.835c0-4.718-3.824-8.541-8.541-8.541s-8.541,3.823-8.541,8.541
			c0,6.525-5.309,11.835-11.835,11.835c-6.526,0-11.835-5.309-11.835-11.835c0-4.718-3.824-8.541-8.541-8.541
			c-4.717,0-8.541,3.823-8.541,8.541c0,6.525-5.309,11.835-11.835,11.835c-3.679,0-7.093-1.687-9.363-4.629
			c-1.712-2.218-4.395-3.454-7.2-3.312c-2.798,0.145-5.348,1.651-6.822,4.034c-10.502,16.964-16.331,36.706-16.807,56.646
			c-0.01,0.434-0.033,0.865-0.039,1.299c-0.695,0.148-1.388,0.311-2.074,0.499C223.291,158.282,223.427,138.866,229.45,120.485z
			 M219.827,197.744c1.701-1.255,3.561-2.258,5.53-3.023v40.681c0,1.331,0.03,2.656,0.072,3.978
			c-8.971-3.466-15.363-12.161-15.363-22.34C210.066,209.355,213.622,202.323,219.827,197.744z M60.971,247.791
			c-0.486-4.109-0.737-8.252-0.737-12.389v-50.864v-6.189c0-14.547,3.284-28.81,9.561-41.767c4.119,2.203,8.762,3.387,13.598,3.387
			c7.942,0,15.144-3.217,20.376-8.418c5.232,5.2,12.434,8.418,20.376,8.418s15.144-3.217,20.376-8.418
			c5.232,5.2,12.434,8.418,20.376,8.418s15.144-3.217,20.376-8.418c5.231,5.2,12.434,8.418,20.376,8.418
			c0.622,0,1.242-0.021,1.86-0.06c-0.021,0.146-0.033,0.294-0.052,0.441c-0.822,6.201-1.247,12.465-1.247,18.72v27.803
			c-8.351,7.722-13.227,18.701-13.227,30.166c0,20.367,14.911,37.316,34.391,40.505c1.107,0.215,2.443,8.472,2.697,9.478
			c3.211,12.697,8.083,24.302,15.308,35.279c0.909,1.38-13.273,13.307-14.799,14.533c-5.5,4.422-11.446,8.287-17.718,11.523
			c-23.428,12.09-51.216,14.979-76.582,7.729c-0.03-0.008-0.058-0.017-0.088-0.025C96.237,324.65,65.976,290.035,60.971,247.791z
			 M214.416,396.937c-8.627,18.988-28.654,31.901-49.519,31.901c-18.954,0-44.067-12.771-49.61-32.383
			c5.06-2.461,11.441-3.492,16.947-4.634c3.963-0.823,6.805-4.315,6.805-8.363v-29.072c0.094,2.498,24.362,2.757,25.859,2.757
			c2.232,0,25.859-0.953,25.859-2.763v29.076c0,4.048,2.842,7.54,6.805,8.363c5.772,1.198,11.498,2.723,17.103,4.552
			C214.582,396.56,214.501,396.75,214.416,396.937z M229.28,383.462l-0.641-0.243h-0.001c-0.001,0-0.002-0.001-0.003-0.001
			l-0.038-0.015c-0.003-0.001-0.006-0.001-0.009-0.002c-6.741-2.598-13.696-4.792-20.749-6.55v-27.404
			c18.363-6.951,34.989-18.274,48.195-33.143c13.002,14.656,29.478,26.161,48.125,33.213v27.333
			c-7.072,1.763-14.042,3.963-20.801,6.57c-0.008,0.002-0.015,0.007-0.022,0.01c-9.53,3.677-18.666,8.173-27.329,13.383
			C247.483,391.491,238.535,387.079,229.28,383.462z"/>
	</g>
</g>
<g>
</g>
<g>
</g>
<g>
</g>
<g>
</g>
<g>
</g>
<g>
</g>
<g>
</g>
<g>
</g>
<g>
</g>
<g>
</g>
<g>
</g>
<g>
</g>
<g>
</g>
<g>
</g>
<g>
</g>
</svg>
